<svg xmlns="http://www.w3.org/2000/svg" xmlns:xlink="http://www.w3.org/1999/xlink" width="712.04" height="124.5" viewBox="0 0 712.04 124.5"><defs><style>.cls-1{fill:#febf46;}.cls-2{fill:none;stroke:#fe92c9;stroke-linecap:round;stroke-width:12px;}.cls-3{fill:url(#名称未設定グラデーション_44);}</style><linearGradient id="名称未設定グラデーション_44" x1="1496.02" y1="730" x2="1496.02" y2="842.5" gradientTransform="translate(-1140 -724)" gradientUnits="userSpaceOnUse"><stop offset="0" stop-color="#ffd9eb"/><stop offset="0.28" stop-color="#ffcfe7"/><stop offset="0.76" stop-color="#ffb2db"/><stop offset="1" stop-color="#ffa2d4"/></linearGradient></defs><g id="レイヤー_2" data-name="レイヤー 2"><g id="レイヤー_3" data-name="レイヤー 3"><path class="cls-1" d="M6,118.5V6H68.55V18.45H31.05V56H56.1v12.6h-25v37.5h37.5V118.5Z"/><path class="cls-1" d="M93.45,118.5V99.75q0-11.1,6.3-17.33T118.5,74.7q-12.45-1.35-18.75-7.65T93.45,49.8V31.05h25V56a12.16,12.16,0,0,0,3.67,8.93A12,12,0,0,0,131,68.55,12.55,12.55,0,0,0,143.55,56V31.05h24.9V49.8q0,11-6.23,17.25T143.55,74.7q12.45,1.5,18.67,7.8t6.23,17.25V118.5h-24.9v-25a12,12,0,0,0-3.68-8.78A12.17,12.17,0,0,0,131,81,12.53,12.53,0,0,0,118.5,93.45v25Z"/><path class="cls-1" d="M268.5,81H218.55V93.45a12.22,12.22,0,0,0,3.67,8.85,11.87,11.87,0,0,0,8.78,3.75h12.6q12.45,0,12.45-12.6H268.5q-2.85,25-24.9,25h-25a25.22,25.22,0,0,1-25.05-25V56a23.83,23.83,0,0,1,7.42-17.55,24.21,24.21,0,0,1,17.63-7.35h25a24,24,0,0,1,17.55,7.35A24,24,0,0,1,268.5,56ZM218.55,68.55h25V56a12,12,0,0,0-3.68-8.78A12.17,12.17,0,0,0,231,43.5,12.53,12.53,0,0,0,218.55,56Z"/><path class="cls-1" d="M293.55,118.5V6H318.6V118.5Z"/><path class="cls-1" d="M343.5,118.5V6h25V118.5Z"/><path class="cls-1" d="M468.44,81H418.49V93.45a12.23,12.23,0,0,0,3.68,8.85,11.85,11.85,0,0,0,8.77,3.75h12.6q12.45,0,12.45-12.6h12.45q-2.85,25-24.9,25H418.49a25.23,25.23,0,0,1-25.05-25V56a23.84,23.84,0,0,1,7.43-17.55,24.19,24.19,0,0,1,17.62-7.35h25.05a24,24,0,0,1,17.55,7.35A24,24,0,0,1,468.44,56ZM418.49,68.55h25.05V56a12,12,0,0,0-3.67-8.78,12.2,12.2,0,0,0-8.93-3.67A12.55,12.55,0,0,0,418.49,56Z"/><path class="cls-1" d="M493.49,118.5V31.05h25V43.5q.75-6.3,3.9-9.38A11.75,11.75,0,0,1,531,31.05h12.6a24,24,0,0,1,17.55,7.35A24,24,0,0,1,568.49,56V118.5h-24.9V56a12,12,0,0,0-3.67-8.78A12.2,12.2,0,0,0,531,43.5,12.55,12.55,0,0,0,518.54,56V118.5Z"/><path class="cls-1" d="M606.14,6H631V31.05h12.6V43.5H631v50q0,6.15,4.05,9.38t7.35,3.22h1.2V118.5H631a25.1,25.1,0,0,1-24.9-25V43.5h-12.6V31.05h12.6Z"/><path class="cls-1" d="M681.14,81V6H706V81Zm0,37.5v-25H706v25Z"/><path class="cls-2" d="M6,118.5V6H68.55V18.45H31.05V56H56.1v12.6h-25v37.5h37.5V118.5Z"/><path class="cls-2" d="M93.45,118.5V99.75q0-11.1,6.3-17.33T118.5,74.7q-12.45-1.35-18.75-7.65T93.45,49.8V31.05h25V56a12.16,12.16,0,0,0,3.67,8.93A12,12,0,0,0,131,68.55,12.55,12.55,0,0,0,143.55,56V31.05h24.9V49.8q0,11-6.23,17.25T143.55,74.7q12.45,1.5,18.67,7.8t6.23,17.25V118.5h-24.9v-25a12,12,0,0,0-3.68-8.78A12.17,12.17,0,0,0,131,81,12.53,12.53,0,0,0,118.5,93.45v25Z"/><path class="cls-2" d="M268.5,81H218.55V93.45a12.22,12.22,0,0,0,3.67,8.85,11.87,11.87,0,0,0,8.78,3.75h12.6q12.45,0,12.45-12.6H268.5q-2.85,25-24.9,25h-25a25.22,25.22,0,0,1-25.05-25V56a23.83,23.83,0,0,1,7.42-17.55,24.21,24.21,0,0,1,17.63-7.35h25a24,24,0,0,1,17.55,7.35A24,24,0,0,1,268.5,56ZM218.55,68.55h25V56a12,12,0,0,0-3.68-8.78A12.17,12.17,0,0,0,231,43.5,12.53,12.53,0,0,0,218.55,56Z"/><path class="cls-2" d="M293.55,118.5V6H318.6V118.5Z"/><path class="cls-2" d="M343.5,118.5V6h25V118.5Z"/><path class="cls-2" d="M468.44,81H418.49V93.45a12.23,12.23,0,0,0,3.68,8.85,11.85,11.85,0,0,0,8.77,3.75h12.6q12.45,0,12.45-12.6h12.45q-2.85,25-24.9,25H418.49a25.23,25.23,0,0,1-25.05-25V56a23.84,23.84,0,0,1,7.43-17.55,24.19,24.19,0,0,1,17.62-7.35h25.05a24,24,0,0,1,17.55,7.35A24,24,0,0,1,468.44,56ZM418.49,68.55h25.05V56a12,12,0,0,0-3.67-8.78,12.2,12.2,0,0,0-8.93-3.67A12.55,12.55,0,0,0,418.49,56Z"/><path class="cls-2" d="M493.49,118.5V31.05h25V43.5q.75-6.3,3.9-9.38A11.75,11.75,0,0,1,531,31.05h12.6a24,24,0,0,1,17.55,7.35A24,24,0,0,1,568.49,56V118.5h-24.9V56a12,12,0,0,0-3.67-8.78A12.2,12.2,0,0,0,531,43.5,12.55,12.55,0,0,0,518.54,56V118.5Z"/><path class="cls-2" d="M606.14,6H631V31.05h12.6V43.5H631v50q0,6.15,4.05,9.38t7.35,3.22h1.2V118.5H631a25.1,25.1,0,0,1-24.9-25V43.5h-12.6V31.05h12.6Z"/><path class="cls-2" d="M681.14,81V6H706V81Zm0,37.5v-25H706v25Z"/><path class="cls-3" d="M6,118.5V6H68.55V18.45H31.05V56H56.1v12.6h-25v37.5h37.5V118.5Z"/><path class="cls-3" d="M93.45,118.5V99.75q0-11.1,6.3-17.33T118.5,74.7q-12.45-1.35-18.75-7.65T93.45,49.8V31.05h25V56a12.16,12.16,0,0,0,3.67,8.93A12,12,0,0,0,131,68.55,12.55,12.55,0,0,0,143.55,56V31.05h24.9V49.8q0,11-6.23,17.25T143.55,74.7q12.45,1.5,18.67,7.8t6.23,17.25V118.5h-24.9v-25a12,12,0,0,0-3.68-8.78A12.17,12.17,0,0,0,131,81,12.53,12.53,0,0,0,118.5,93.45v25Z"/><path class="cls-3" d="M268.5,81H218.55V93.45a12.22,12.22,0,0,0,3.67,8.85,11.87,11.87,0,0,0,8.78,3.75h12.6q12.45,0,12.45-12.6H268.5q-2.85,25-24.9,25h-25a25.22,25.22,0,0,1-25.05-25V56a23.83,23.83,0,0,1,7.42-17.55,24.21,24.21,0,0,1,17.63-7.35h25a24,24,0,0,1,17.55,7.35A24,24,0,0,1,268.5,56ZM218.55,68.55h25V56a12,12,0,0,0-3.68-8.78A12.17,12.17,0,0,0,231,43.5,12.53,12.53,0,0,0,218.55,56Z"/><path class="cls-3" d="M293.55,118.5V6H318.6V118.5Z"/><path class="cls-3" d="M343.5,118.5V6h25V118.5Z"/><path class="cls-3" d="M468.44,81H418.49V93.45a12.23,12.23,0,0,0,3.68,8.85,11.85,11.85,0,0,0,8.77,3.75h12.6q12.45,0,12.45-12.6h12.45q-2.85,25-24.9,25H418.49a25.23,25.23,0,0,1-25.05-25V56a23.84,23.84,0,0,1,7.43-17.55,24.19,24.19,0,0,1,17.62-7.35h25.05a24,24,0,0,1,17.55,7.35A24,24,0,0,1,468.44,56ZM418.49,68.55h25.05V56a12,12,0,0,0-3.67-8.78,12.2,12.2,0,0,0-8.93-3.67A12.55,12.55,0,0,0,418.49,56Z"/><path class="cls-3" d="M493.49,118.5V31.05h25V43.5q.75-6.3,3.9-9.38A11.75,11.75,0,0,1,531,31.05h12.6a24,24,0,0,1,17.55,7.35A24,24,0,0,1,568.49,56V118.5h-24.9V56a12,12,0,0,0-3.67-8.78A12.2,12.2,0,0,0,531,43.5,12.55,12.55,0,0,0,518.54,56V118.5Z"/><path class="cls-3" d="M606.14,6H631V31.05h12.6V43.5H631v50q0,6.15,4.05,9.38t7.35,3.22h1.2V118.5H631a25.1,25.1,0,0,1-24.9-25V43.5h-12.6V31.05h12.6Z"/><path class="cls-3" d="M681.14,81V6H706V81Zm0,37.5v-25H706v25Z"/></g></g></svg>