<svg xmlns="http://www.w3.org/2000/svg" xmlns:xlink="http://www.w3.org/1999/xlink" width="449.7" height="124.5" viewBox="0 0 449.7 124.5"><defs><style>.cls-1{fill:none;stroke:#28addb;stroke-linecap:round;stroke-width:12px;}.cls-2{fill:url(#名称未設定グラデーション_12);}</style><linearGradient id="名称未設定グラデーション_12" x1="349.85" y1="1062" x2="349.85" y2="1174.5" gradientTransform="translate(-125 -1056)" gradientUnits="userSpaceOnUse"><stop offset="0" stop-color="#c1f2e8"/><stop offset="0.14" stop-color="#b6f0e7"/><stop offset="0.38" stop-color="#9aebe4"/><stop offset="0.69" stop-color="#6ce3de"/><stop offset="1" stop-color="#37dad8"/></linearGradient></defs><g id="レイヤー_2" data-name="レイヤー 2"><g id="レイヤー_3" data-name="レイヤー 3"><path d="M43.5,56H81v37.5q0,12.6-8,18.82A27,27,0,0,1,56.1,118.5h-25a24.23,24.23,0,0,1-17.63-7.35A24,24,0,0,1,6,93.45V31.05a24.32,24.32,0,0,1,7.28-17.63A23.94,23.94,0,0,1,31.05,6H56.1Q79.65,6,81,31.05H68.55q-1.5-12.6-12.45-12.6H43.5a12,12,0,0,0-8.78,3.67,12.17,12.17,0,0,0-3.67,8.93v62.4a12.16,12.16,0,0,0,3.67,8.93,12,12,0,0,0,8.78,3.67q12-.6,12.6-12.6V68.55H43.5Z"/><path d="M131.1,31.05h25.05A24,24,0,0,1,173.7,38.4,24,24,0,0,1,181.05,56v37.5a24.23,24.23,0,0,1-7.35,17.63,23.87,23.87,0,0,1-17.55,7.42H131.1a25.22,25.22,0,0,1-25-25V56a23.83,23.83,0,0,1,7.42-17.55A24.21,24.21,0,0,1,131.1,31.05Zm0,24.9v37.5a12.22,12.22,0,0,0,3.67,8.85,11.87,11.87,0,0,0,8.78,3.75,12,12,0,0,0,8.92-3.75,12.23,12.23,0,0,0,3.68-8.85V56a12,12,0,0,0-3.68-8.78,12.17,12.17,0,0,0-8.92-3.67A12.53,12.53,0,0,0,131.1,56Z"/><path d="M231.15,31.05h25a24,24,0,0,1,17.55,7.35A24,24,0,0,1,281.1,56v37.5a24.23,24.23,0,0,1-7.35,17.63,23.87,23.87,0,0,1-17.55,7.42h-25a25.22,25.22,0,0,1-25.05-25V56a23.83,23.83,0,0,1,7.42-17.55A24.21,24.21,0,0,1,231.15,31.05Zm0,24.9v37.5a12.22,12.22,0,0,0,3.67,8.85,11.87,11.87,0,0,0,8.78,3.75,12,12,0,0,0,8.92-3.75,12.23,12.23,0,0,0,3.68-8.85V56a12,12,0,0,0-3.68-8.78,12.17,12.17,0,0,0-8.92-3.67A12.53,12.53,0,0,0,231.15,56Z"/><path d="M381.15,118.5h-24.9V106.05q-1.5,12.45-12.6,12.45H331.2a25.22,25.22,0,0,1-25.05-25V56a23.83,23.83,0,0,1,7.42-17.55,24.2,24.2,0,0,1,17.63-7.35h25.05V6h24.9Zm-24.9-75h-12.6A12.53,12.53,0,0,0,331.2,56v37.5a12.22,12.22,0,0,0,3.67,8.85,11.87,11.87,0,0,0,8.78,3.75,12,12,0,0,0,8.92-3.75,12.23,12.23,0,0,0,3.68-8.85Z"/><path d="M418.79,81V6H443.7V81Zm0,37.5v-25H443.7v25Z"/><path class="cls-1" d="M43.5,56H81v37.5q0,12.6-8,18.82A27,27,0,0,1,56.1,118.5h-25a24.23,24.23,0,0,1-17.63-7.35A24,24,0,0,1,6,93.45V31.05a24.32,24.32,0,0,1,7.28-17.63A23.94,23.94,0,0,1,31.05,6H56.1Q79.65,6,81,31.05H68.55q-1.5-12.6-12.45-12.6H43.5a12,12,0,0,0-8.78,3.67,12.17,12.17,0,0,0-3.67,8.93v62.4a12.16,12.16,0,0,0,3.67,8.93,12,12,0,0,0,8.78,3.67q12-.6,12.6-12.6V68.55H43.5Z"/><path class="cls-1" d="M131.1,31.05h25.05A24,24,0,0,1,173.7,38.4,24,24,0,0,1,181.05,56v37.5a24.23,24.23,0,0,1-7.35,17.63,23.87,23.87,0,0,1-17.55,7.42H131.1a25.22,25.22,0,0,1-25-25V56a23.83,23.83,0,0,1,7.42-17.55A24.21,24.21,0,0,1,131.1,31.05Zm0,24.9v37.5a12.22,12.22,0,0,0,3.67,8.85,11.87,11.87,0,0,0,8.78,3.75,12,12,0,0,0,8.92-3.75,12.23,12.23,0,0,0,3.68-8.85V56a12,12,0,0,0-3.68-8.78,12.17,12.17,0,0,0-8.92-3.67A12.53,12.53,0,0,0,131.1,56Z"/><path class="cls-1" d="M231.15,31.05h25a24,24,0,0,1,17.55,7.35A24,24,0,0,1,281.1,56v37.5a24.23,24.23,0,0,1-7.35,17.63,23.87,23.87,0,0,1-17.55,7.42h-25a25.22,25.22,0,0,1-25.05-25V56a23.83,23.83,0,0,1,7.42-17.55A24.21,24.21,0,0,1,231.15,31.05Zm0,24.9v37.5a12.22,12.22,0,0,0,3.67,8.85,11.87,11.87,0,0,0,8.78,3.75,12,12,0,0,0,8.92-3.75,12.23,12.23,0,0,0,3.68-8.85V56a12,12,0,0,0-3.68-8.78,12.17,12.17,0,0,0-8.92-3.67A12.53,12.53,0,0,0,231.15,56Z"/><path class="cls-1" d="M381.15,118.5h-24.9V106.05q-1.5,12.45-12.6,12.45H331.2a25.22,25.22,0,0,1-25.05-25V56a23.83,23.83,0,0,1,7.42-17.55,24.2,24.2,0,0,1,17.63-7.35h25.05V6h24.9Zm-24.9-75h-12.6A12.53,12.53,0,0,0,331.2,56v37.5a12.22,12.22,0,0,0,3.67,8.85,11.87,11.87,0,0,0,8.78,3.75,12,12,0,0,0,8.92-3.75,12.23,12.23,0,0,0,3.68-8.85Z"/><path class="cls-1" d="M418.79,81V6H443.7V81Zm0,37.5v-25H443.7v25Z"/><path class="cls-2" d="M43.5,56H81v37.5q0,12.6-8,18.82A27,27,0,0,1,56.1,118.5h-25a24.23,24.23,0,0,1-17.63-7.35A24,24,0,0,1,6,93.45V31.05a24.32,24.32,0,0,1,7.28-17.63A23.94,23.94,0,0,1,31.05,6H56.1Q79.65,6,81,31.05H68.55q-1.5-12.6-12.45-12.6H43.5a12,12,0,0,0-8.78,3.67,12.17,12.17,0,0,0-3.67,8.93v62.4a12.16,12.16,0,0,0,3.67,8.93,12,12,0,0,0,8.78,3.67q12-.6,12.6-12.6V68.55H43.5Z"/><path class="cls-2" d="M131.1,31.05h25.05A24,24,0,0,1,173.7,38.4,24,24,0,0,1,181.05,56v37.5a24.23,24.23,0,0,1-7.35,17.63,23.87,23.87,0,0,1-17.55,7.42H131.1a25.22,25.22,0,0,1-25-25V56a23.83,23.83,0,0,1,7.42-17.55A24.21,24.21,0,0,1,131.1,31.05Zm0,24.9v37.5a12.22,12.22,0,0,0,3.67,8.85,11.87,11.87,0,0,0,8.78,3.75,12,12,0,0,0,8.92-3.75,12.23,12.23,0,0,0,3.68-8.85V56a12,12,0,0,0-3.68-8.78,12.17,12.17,0,0,0-8.92-3.67A12.53,12.53,0,0,0,131.1,56Z"/><path class="cls-2" d="M231.15,31.05h25a24,24,0,0,1,17.55,7.35A24,24,0,0,1,281.1,56v37.5a24.23,24.23,0,0,1-7.35,17.63,23.87,23.87,0,0,1-17.55,7.42h-25a25.22,25.22,0,0,1-25.05-25V56a23.83,23.83,0,0,1,7.42-17.55A24.21,24.21,0,0,1,231.15,31.05Zm0,24.9v37.5a12.22,12.22,0,0,0,3.67,8.85,11.87,11.87,0,0,0,8.78,3.75,12,12,0,0,0,8.92-3.75,12.23,12.23,0,0,0,3.68-8.85V56a12,12,0,0,0-3.68-8.78,12.17,12.17,0,0,0-8.92-3.67A12.53,12.53,0,0,0,231.15,56Z"/><path class="cls-2" d="M381.15,118.5h-24.9V106.05q-1.5,12.45-12.6,12.45H331.2a25.22,25.22,0,0,1-25.05-25V56a23.83,23.83,0,0,1,7.42-17.55,24.2,24.2,0,0,1,17.63-7.35h25.05V6h24.9Zm-24.9-75h-12.6A12.53,12.53,0,0,0,331.2,56v37.5a12.22,12.22,0,0,0,3.67,8.85,11.87,11.87,0,0,0,8.78,3.75,12,12,0,0,0,8.92-3.75,12.23,12.23,0,0,0,3.68-8.85Z"/><path class="cls-2" d="M418.79,81V6H443.7V81Zm0,37.5v-25H443.7v25Z"/></g></g></svg>