<svg xmlns="http://www.w3.org/2000/svg" xmlns:xlink="http://www.w3.org/1999/xlink" width="499.65" height="124.5" viewBox="0 0 499.65 124.5"><defs><style>.cls-1{fill:#febf46;}.cls-2{fill:none;stroke:#ffe8bb;stroke-linecap:round;stroke-width:12px;}.cls-3{fill:url(#オレンジグラデ);}</style><linearGradient id="オレンジグラデ" x1="1402.82" y1="740" x2="1402.82" y2="852.5" gradientTransform="translate(-1153 -734)" gradientUnits="userSpaceOnUse"><stop offset="0" stop-color="#febf46"/><stop offset="0.23" stop-color="#feba3b"/><stop offset="0.63" stop-color="#ffae1f"/><stop offset="1" stop-color="#ffa000"/></linearGradient></defs><g id="レイヤー_2" data-name="レイヤー 2"><g id="レイヤー_3" data-name="レイヤー 3"><path class="cls-1" d="M43.5,56H81v37.5q0,12.6-8,18.82A27,27,0,0,1,56.1,118.5h-25a24.23,24.23,0,0,1-17.63-7.35A24,24,0,0,1,6,93.45V31.05a24.35,24.35,0,0,1,7.27-17.63A24,24,0,0,1,31.05,6H56.1Q79.65,6,81,31.05H68.55q-1.5-12.6-12.45-12.6H43.5a12,12,0,0,0-8.78,3.67,12.17,12.17,0,0,0-3.67,8.93v62.4a12.16,12.16,0,0,0,3.67,8.93,12,12,0,0,0,8.78,3.67q12-.6,12.6-12.6V68.55H43.5Z"/><path class="cls-1" d="M131.1,118.5h-25V31.05h25V56q1.5-12.45,7.72-18.68t17.33-6.22H168.6V56h-25a12,12,0,0,0-8.78,3.67,12.17,12.17,0,0,0-3.67,8.93Z"/><path class="cls-1" d="M256.05,81h-50V93.45a12.22,12.22,0,0,0,3.67,8.85,11.87,11.87,0,0,0,8.78,3.75h12.6q12.45,0,12.45-12.6h12.45q-2.85,25-24.9,25H206.1a25.22,25.22,0,0,1-25-25V56a23.83,23.83,0,0,1,7.42-17.55,24.21,24.21,0,0,1,17.63-7.35h25.05A24,24,0,0,1,248.7,38.4,24,24,0,0,1,256.05,56Zm-50-12.45h25.05V56a12,12,0,0,0-3.68-8.78,12.17,12.17,0,0,0-8.92-3.67A12.53,12.53,0,0,0,206.1,56Z"/><path class="cls-1" d="M331.2,68.55V56a12,12,0,0,0-3.68-8.78,12.17,12.17,0,0,0-8.92-3.67H306.15q-11.1,0-12.45,12.45H281.1q3-24.9,25-24.9H331.2a24,24,0,0,1,17.55,7.35A24,24,0,0,1,356.1,56V118.5H331.2V106.05q-1.5,12.45-12.6,12.45H306.15a25.22,25.22,0,0,1-25-25,23.83,23.83,0,0,1,7.42-17.55,24.21,24.21,0,0,1,17.63-7.35Zm0,12.45H318.6a12.53,12.53,0,0,0-12.45,12.45,12.22,12.22,0,0,0,3.67,8.85,11.87,11.87,0,0,0,8.78,3.75,12,12,0,0,0,8.92-3.75,12.23,12.23,0,0,0,3.68-8.85Z"/><path class="cls-1" d="M393.75,6h24.9V31.05h12.6V43.5h-12.6v50q0,6.15,4.05,9.38t7.35,3.22h1.2V118.5h-12.6a25.1,25.1,0,0,1-24.9-25V43.5h-12.6V31.05h12.6Z"/><path class="cls-1" d="M468.75,81V6h24.9V81Zm0,37.5v-25h24.9v25Z"/><path class="cls-2" d="M43.5,56H81v37.5q0,12.6-8,18.82A27,27,0,0,1,56.1,118.5h-25a24.23,24.23,0,0,1-17.63-7.35A24,24,0,0,1,6,93.45V31.05a24.35,24.35,0,0,1,7.27-17.63A24,24,0,0,1,31.05,6H56.1Q79.65,6,81,31.05H68.55q-1.5-12.6-12.45-12.6H43.5a12,12,0,0,0-8.78,3.67,12.17,12.17,0,0,0-3.67,8.93v62.4a12.16,12.16,0,0,0,3.67,8.93,12,12,0,0,0,8.78,3.67q12-.6,12.6-12.6V68.55H43.5Z"/><path class="cls-2" d="M131.1,118.5h-25V31.05h25V56q1.5-12.45,7.72-18.68t17.33-6.22H168.6V56h-25a12,12,0,0,0-8.78,3.67,12.17,12.17,0,0,0-3.67,8.93Z"/><path class="cls-2" d="M256.05,81h-50V93.45a12.22,12.22,0,0,0,3.67,8.85,11.87,11.87,0,0,0,8.78,3.75h12.6q12.45,0,12.45-12.6h12.45q-2.85,25-24.9,25H206.1a25.22,25.22,0,0,1-25-25V56a23.83,23.83,0,0,1,7.42-17.55,24.21,24.21,0,0,1,17.63-7.35h25.05A24,24,0,0,1,248.7,38.4,24,24,0,0,1,256.05,56Zm-50-12.45h25.05V56a12,12,0,0,0-3.68-8.78,12.17,12.17,0,0,0-8.92-3.67A12.53,12.53,0,0,0,206.1,56Z"/><path class="cls-2" d="M331.2,68.55V56a12,12,0,0,0-3.68-8.78,12.17,12.17,0,0,0-8.92-3.67H306.15q-11.1,0-12.45,12.45H281.1q3-24.9,25-24.9H331.2a24,24,0,0,1,17.55,7.35A24,24,0,0,1,356.1,56V118.5H331.2V106.05q-1.5,12.45-12.6,12.45H306.15a25.22,25.22,0,0,1-25-25,23.83,23.83,0,0,1,7.42-17.55,24.21,24.21,0,0,1,17.63-7.35Zm0,12.45H318.6a12.53,12.53,0,0,0-12.45,12.45,12.22,12.22,0,0,0,3.67,8.85,11.87,11.87,0,0,0,8.78,3.75,12,12,0,0,0,8.92-3.75,12.23,12.23,0,0,0,3.68-8.85Z"/><path class="cls-2" d="M393.75,6h24.9V31.05h12.6V43.5h-12.6v50q0,6.15,4.05,9.38t7.35,3.22h1.2V118.5h-12.6a25.1,25.1,0,0,1-24.9-25V43.5h-12.6V31.05h12.6Z"/><path class="cls-2" d="M468.75,81V6h24.9V81Zm0,37.5v-25h24.9v25Z"/><path class="cls-3" d="M43.5,56H81v37.5q0,12.6-8,18.82A27,27,0,0,1,56.1,118.5h-25a24.23,24.23,0,0,1-17.63-7.35A24,24,0,0,1,6,93.45V31.05a24.35,24.35,0,0,1,7.27-17.63A24,24,0,0,1,31.05,6H56.1Q79.65,6,81,31.05H68.55q-1.5-12.6-12.45-12.6H43.5a12,12,0,0,0-8.78,3.67,12.17,12.17,0,0,0-3.67,8.93v62.4a12.16,12.16,0,0,0,3.67,8.93,12,12,0,0,0,8.78,3.67q12-.6,12.6-12.6V68.55H43.5Z"/><path class="cls-3" d="M131.1,118.5h-25V31.05h25V56q1.5-12.45,7.72-18.68t17.33-6.22H168.6V56h-25a12,12,0,0,0-8.78,3.67,12.17,12.17,0,0,0-3.67,8.93Z"/><path class="cls-3" d="M256.05,81h-50V93.45a12.22,12.22,0,0,0,3.67,8.85,11.87,11.87,0,0,0,8.78,3.75h12.6q12.45,0,12.45-12.6h12.45q-2.85,25-24.9,25H206.1a25.22,25.22,0,0,1-25-25V56a23.83,23.83,0,0,1,7.42-17.55,24.21,24.21,0,0,1,17.63-7.35h25.05A24,24,0,0,1,248.7,38.4,24,24,0,0,1,256.05,56Zm-50-12.45h25.05V56a12,12,0,0,0-3.68-8.78,12.17,12.17,0,0,0-8.92-3.67A12.53,12.53,0,0,0,206.1,56Z"/><path class="cls-3" d="M331.2,68.55V56a12,12,0,0,0-3.68-8.78,12.17,12.17,0,0,0-8.92-3.67H306.15q-11.1,0-12.45,12.45H281.1q3-24.9,25-24.9H331.2a24,24,0,0,1,17.55,7.35A24,24,0,0,1,356.1,56V118.5H331.2V106.05q-1.5,12.45-12.6,12.45H306.15a25.22,25.22,0,0,1-25-25,23.83,23.83,0,0,1,7.42-17.55,24.21,24.21,0,0,1,17.63-7.35Zm0,12.45H318.6a12.53,12.53,0,0,0-12.45,12.45,12.22,12.22,0,0,0,3.67,8.85,11.87,11.87,0,0,0,8.78,3.75,12,12,0,0,0,8.92-3.75,12.23,12.23,0,0,0,3.68-8.85Z"/><path class="cls-3" d="M393.75,6h24.9V31.05h12.6V43.5h-12.6v50q0,6.15,4.05,9.38t7.35,3.22h1.2V118.5h-12.6a25.1,25.1,0,0,1-24.9-25V43.5h-12.6V31.05h12.6Z"/><path class="cls-3" d="M468.75,81V6h24.9V81Zm0,37.5v-25h24.9v25Z"/></g></g></svg>