<svg xmlns="http://www.w3.org/2000/svg" xmlns:xlink="http://www.w3.org/1999/xlink" width="200" height="35" viewBox="0 0 200 35"><defs><style>.cls-1{fill:url(#名称未設定グラデーション_59);}.cls-2{fill:#7ffa80;}.cls-3,.cls-4{fill:none;stroke:#7ffa80;stroke-linecap:round;stroke-miterlimit:10;stroke-width:4px;}.cls-4{stroke-dasharray:0.89 6.21;}</style><linearGradient id="名称未設定グラデーション_59" x1="100" y1="2.5" x2="100" y2="32.5" gradientUnits="userSpaceOnUse"><stop offset="0" stop-color="#c1fda6"/><stop offset="0.27" stop-color="#b7faa0"/><stop offset="0.74" stop-color="#9af492"/><stop offset="1" stop-color="#88ef88"/></linearGradient></defs><g id="レイヤー_2" data-name="レイヤー 2"><g id="レイヤー_3" data-name="レイヤー 3"><rect class="cls-1" x="2.5" y="2.5" width="195" height="30" rx="7.5"/><path class="cls-2" d="M190,5a5,5,0,0,1,5,5V25a5,5,0,0,1-5,5H10a5,5,0,0,1-5-5V10a5,5,0,0,1,5-5H190m0-5H10A10,10,0,0,0,0,10V25A10,10,0,0,0,10,35H190a10,10,0,0,0,10-10V10A10,10,0,0,0,190,0Z"/><line class="cls-3" x1="99.5" y1="4" x2="99.49" y2="4.5"/><line class="cls-4" x1="99.38" y1="10.71" x2="99.06" y2="28.9"/><line class="cls-3" x1="99.01" y1="32" x2="99" y2="32.5"/></g></g></svg>