<svg xmlns="http://www.w3.org/2000/svg" xmlns:xlink="http://www.w3.org/1999/xlink" width="50" height="35" viewBox="0 0 50 35"><defs><style>.cls-1{fill:url(#名称未設定グラデーション_59);}.cls-2{fill:#7ffa80;}</style><linearGradient id="名称未設定グラデーション_59" x1="25" y1="2" x2="25" y2="33" gradientUnits="userSpaceOnUse"><stop offset="0" stop-color="#c1fda6"/><stop offset="0.27" stop-color="#b7faa0"/><stop offset="0.74" stop-color="#9af492"/><stop offset="1" stop-color="#88ef88"/></linearGradient></defs><g id="レイヤー_2" data-name="レイヤー 2"><g id="レイヤー_3" data-name="レイヤー 3"><rect class="cls-1" x="2" y="2" width="46" height="31" rx="8"/><path class="cls-2" d="M40,4a6,6,0,0,1,6,6V25a6,6,0,0,1-6,6H10a6,6,0,0,1-6-6V10a6,6,0,0,1,6-6H40m0-4H10A10,10,0,0,0,0,10V25A10,10,0,0,0,10,35H40A10,10,0,0,0,50,25V10A10,10,0,0,0,40,0Z"/></g></g></svg>