<svg xmlns="http://www.w3.org/2000/svg" xmlns:xlink="http://www.w3.org/1999/xlink" width="75" height="35" viewBox="0 0 75 35"><defs><style>.cls-1{fill:url(#水色グラデ);}.cls-2{fill:#37dad8;}</style><linearGradient id="水色グラデ" x1="37.5" y1="2" x2="37.5" y2="33" gradientUnits="userSpaceOnUse"><stop offset="0" stop-color="#c1f2e8"/><stop offset="0.16" stop-color="#b6f0e8"/><stop offset="0.44" stop-color="#9aebe7"/><stop offset="0.81" stop-color="#6de3e6"/><stop offset="1" stop-color="#52dee5"/></linearGradient></defs><g id="レイヤー_2" data-name="レイヤー 2"><g id="レイヤー_3" data-name="レイヤー 3"><rect class="cls-1" x="2" y="2" width="71" height="31" rx="8"/><path class="cls-2" d="M65,4a6,6,0,0,1,6,6V25a6,6,0,0,1-6,6H10a6,6,0,0,1-6-6V10a6,6,0,0,1,6-6H65m0-4H10A10,10,0,0,0,0,10V25A10,10,0,0,0,10,35H65A10,10,0,0,0,75,25V10A10,10,0,0,0,65,0Z"/></g></g></svg>