<svg xmlns="http://www.w3.org/2000/svg" xmlns:xlink="http://www.w3.org/1999/xlink" width="100" height="35" viewBox="0 0 100 35"><defs><style>.cls-1{fill:url(#名称未設定グラデーション_59);}.cls-2{fill:#7ffa80;}</style><linearGradient id="名称未設定グラデーション_59" x1="50" y1="2.5" x2="50" y2="32.5" gradientUnits="userSpaceOnUse"><stop offset="0" stop-color="#c1fda6"/><stop offset="0.27" stop-color="#b7faa0"/><stop offset="0.74" stop-color="#9af492"/><stop offset="1" stop-color="#88ef88"/></linearGradient></defs><g id="レイヤー_2" data-name="レイヤー 2"><g id="レイヤー_3" data-name="レイヤー 3"><rect class="cls-1" x="2.5" y="2.5" width="95" height="30" rx="7.5"/><path class="cls-2" d="M90,5a5,5,0,0,1,5,5V25a5,5,0,0,1-5,5H10a5,5,0,0,1-5-5V10a5,5,0,0,1,5-5H90m0-5H10A10,10,0,0,0,0,10V25A10,10,0,0,0,10,35H90a10,10,0,0,0,10-10V10A10,10,0,0,0,90,0Z"/></g></g></svg>