<svg xmlns="http://www.w3.org/2000/svg" xmlns:xlink="http://www.w3.org/1999/xlink" width="25" height="35" viewBox="0 0 25 35"><defs><style>.cls-1{fill:url(#水色グラデ);}.cls-2{fill:#37dad8;}</style><linearGradient id="水色グラデ" x1="12.5" y1="2" x2="12.5" y2="33" gradientUnits="userSpaceOnUse"><stop offset="0" stop-color="#c1f2e8"/><stop offset="0.16" stop-color="#b6f0e8"/><stop offset="0.44" stop-color="#9aebe7"/><stop offset="0.81" stop-color="#6de3e6"/><stop offset="1" stop-color="#52dee5"/></linearGradient></defs><g id="レイヤー_2" data-name="レイヤー 2"><g id="レイヤー_3" data-name="レイヤー 3"><rect class="cls-1" x="2" y="2" width="21" height="31" rx="7"/><path class="cls-2" d="M16,4a5,5,0,0,1,5,5V26a5,5,0,0,1-5,5H9a5,5,0,0,1-5-5V9A5,5,0,0,1,9,4h7m0-4H9A9,9,0,0,0,0,9V26a9,9,0,0,0,9,9h7a9,9,0,0,0,9-9V9a9,9,0,0,0-9-9Z"/></g></g></svg>